<?xml version="1.0" encoding="utf-8"?>
<!-- Generator: Adobe Illustrator 26.0.0, SVG Export Plug-In . SVG Version: 6.00 Build 0)  -->
<svg version="1.1" id="Layer_1" xmlns="http://www.w3.org/2000/svg" xmlns:xlink="http://www.w3.org/1999/xlink" x="0px" y="0px"
	 viewBox="0 0 266.2 117.6" style="enable-background:new 0 0 266.2 117.6;" xml:space="preserve">
<style type="text/css">
	.st0{clip-path:url(#SVGID_00000147931077695935855280000009876919840463921548_);}
	.st1{fill:#FFFFFF;}
	.st2{fill:#FFFFFF;stroke:#FFFFFF;stroke-width:2;stroke-miterlimit:10;}
</style>
<g id="Group_17" transform="translate(0 117.589)">
	<g>
		<defs>
			<rect id="SVGID_1_" y="-117.6" width="266.2" height="117.6"/>
		</defs>
		<clipPath id="SVGID_00000124156626858525744430000017277256389215570058_">
			<use xlink:href="#SVGID_1_"  style="overflow:visible;"/>
		</clipPath>
		<g id="Group_16" style="clip-path:url(#SVGID_00000124156626858525744430000017277256389215570058_);">
			<g id="Group_14" transform="translate(260.198 -18.718)">
				<path id="Path_16" class="st1" d="M0,0c0,1.1-0.6,2.2-1.5,2.8L-14-18.8l7.3-6.1l1.2,2.1C-1.9-16.5,0-9.4,0-2.2L0,0z M-37-1.6
					l-2.4,1.9c0,0,0,0,0,0c0,0,0,0,0,0l-2,1.6c-1.1,0.9-2.3,1.7-3.6,2.4c-0.9,0.5-1.8,0.9-2.7,1.3c0,0-0.1,0-0.1,0
					c-0.9,0.3-1.9,0.1-2.5-0.6c-0.7-0.7-0.8-1.7-0.5-2.5c0.4-0.9,0.8-1.8,1.3-2.7c0.7-1.3,1.5-2.5,2.4-3.6l1.6-2c0,0,0,0,0,0
					l1.9-2.4L-12.3-44c2.9-3.1,6.9-4.9,11.1-4.9c0.7,0,1.4,0.1,2.2,0.2l1.3,0.2c0.5,0.1,0.9,0.5,1,1l0.2,1.3
					c0.7,4.9-1.1,9.9-4.7,13.3L-37-1.6z M-36.5,13.3l0,1.7c0,0.4-0.2,0.7-0.4,0.9l-5.9-10.3c0.2-0.1,0.4-0.3,0.7-0.4
					c0.2-0.1,0.4-0.2,0.5-0.3c0.6-0.4,1.1-0.8,1.6-1.2l0,0l1-0.7C-37.4,6.1-36.5,9.7-36.5,13.3 M-60.2-8.7l1.8,0
					c3.6,0,7.2,0.9,10.3,2.6l-0.7,0.9c-0.4,0.5-0.8,1.1-1.2,1.7c-0.1,0.2-0.2,0.3-0.3,0.5c-0.1,0.2-0.3,0.4-0.4,0.7l-10.3-5.9
					C-60.9-8.6-60.6-8.7-60.2-8.7 M-45.2-45.2l2.2,0c7.2,0,14.4,1.9,20.6,5.5l2.1,1.2l-6.1,7.3L-48-43.7
					C-47.4-44.7-46.3-45.2-45.2-45.2 M-4.9-26.5l5.2-4.7l0,0c4.2-3.9,6.2-9.6,5.4-15.3l-0.2-1.4c-0.2-1.5-1.4-2.7-3-3L1.3-51
					c-5.7-0.8-11.4,1.2-15.4,5.5l-4.7,5.2l-2.5-1.5c-6.6-3.8-14.2-5.8-21.8-5.8l-2.2,0c-2.1,0-4,1.1-5,2.9l-0.4,0.7
					c-0.3,0.6-0.1,1.3,0.4,1.6L-28-29.5L-45.4-9.8L-46.7-8c-3.6-2-7.7-3-11.8-3l-1.8,0c-1.2,0-2.4,0.7-3,1.8l-0.5,0.9
					c-0.2,0.3-0.2,0.6-0.1,0.9c0.1,0.3,0.3,0.6,0.5,0.7L-52-0.3c-0.3,0.6-0.6,1.2-0.9,1.9C-53.5,3-53.4,4.6-52.5,6
					c0.9,1.3,2.3,2.1,3.9,2.1c0.6,0,1.3-0.1,1.9-0.4c0,0,0.1,0,0.1,0c0.6-0.3,1.2-0.5,1.8-0.9l6.5,11.3c0.2,0.3,0.4,0.5,0.7,0.5
					c0.3,0.1,0.6,0,0.9-0.1l0.9-0.5h0c1.1-0.6,1.7-1.8,1.7-3l0-1.7c0-4.1-1.1-8.2-3-11.8l1.7-1.3l19.7-17.4L-2.9,5
					c0.3,0.6,1,0.8,1.6,0.4c0,0,0,0,0,0l0.7-0.4c1.8-1,2.9-3,2.9-5l0-2.2c0-7.7-2-15.2-5.8-21.8L-4.9-26.5z"/>
			</g>
			<g id="Group_15" transform="translate(252.709 -61.24)">
				<path id="Path_17" class="st1" d="M0,0c1.7-1,3.8-0.5,4.8,1.2c0.7,1.1,0.7,2.5,0,3.6C4.5,5.4,4.6,6.1,5.2,6.4
					C5.8,6.7,6.5,6.6,6.8,6c1.6-2.8,0.7-6.4-2-8c-1.8-1.1-4.1-1.1-6,0c-0.4,0.2-0.6,0.6-0.6,1c0,0.4,0.2,0.8,0.6,1
					C-0.8,0.2-0.4,0.2,0,0"/>
			</g>
		</g>
	</g>
</g>
<g>
	<path class="st2" d="M0.9,1h28v5.6h-28V1z M12.1,4.4h5.6v38.5h-5.6V4.4z"/>
	<path class="st2" d="M34.4,0.9H40v41.9h-5.6V0.9z M36.9,19.5h13.6c1.1,0,2-0.3,2.8-0.8c0.8-0.5,1.5-1.3,1.9-2.3
		c0.4-1,0.7-2.1,0.7-3.4s-0.2-2.4-0.7-3.4c-0.4-1-1.1-1.8-1.9-2.3c-0.8-0.5-1.8-0.8-2.8-0.8H36.9V0.9h13.3c2.3,0,4.3,0.5,6.1,1.5
		s3.1,2.4,4,4.2s1.4,4,1.4,6.4c0,2.4-0.5,4.5-1.4,6.4c-1,1.8-2.3,3.3-4.1,4.2c-1.7,1-3.7,1.5-6,1.5H36.9V19.5z M47.7,23.8l5.5-1.3
		l10.2,20.3h-6.6L47.7,23.8z"/>
	<path class="st2" d="M80.4,1h4.8l14.7,41.9h-6L82.8,9l-11,33.8h-6L80.4,1z M72.5,28.1h20.9v5.6H72.5V28.1z"/>
	<path class="st2" d="M99.2,1h6.1l9.5,32.8L124.4,1h6.1l-13,41.9h-5.3L99.2,1z"/>
	<path class="st2" d="M136.5,1h5.6v41.9h-5.6V1z M139.2,1H162v5.6h-22.8V1z M139.2,19.2H159v5.6h-19.8V19.2z M139.2,37.2H162v5.6
		h-22.8V37.2z"/>
	<path class="st2" d="M169.9,1h5.6v41.9h-5.6V1z M172.7,37.2h22.7v5.6h-22.7V37.2z"/>
</g>
<g>
	<path class="st2" d="M14.6,57.8H19l13.6,54.7h-5.6L16.8,68.4L6.6,112.5H1L14.6,57.8z M7.2,93.2h19.5v7.3H7.2V93.2z"/>
	<path class="st2" d="M62.3,83.1v9.6c0,4.1-0.5,7.6-1.6,10.7c-1.1,3.1-2.6,5.5-4.5,7.2c-2,1.7-4.2,2.5-6.8,2.5
		c-2.6,0-4.9-0.8-6.9-2.4c-2-1.6-3.5-3.8-4.6-6.7c-1.1-2.9-1.6-6.3-1.6-10.1V77.7c0-4.1,0.5-7.6,1.6-10.7c1.1-3.1,2.6-5.5,4.5-7.2
		c2-1.7,4.2-2.5,6.8-2.5c2.1,0,4.1,0.7,5.9,2c1.8,1.3,3.3,3.2,4.5,5.7c1.2,2.5,2,5.3,2.4,8.5h-5.6c-0.3-1.8-0.8-3.4-1.6-4.7
		c-0.7-1.3-1.6-2.3-2.6-3s-2-1-3.1-1c-1.5,0-2.9,0.5-4,1.6c-1.2,1.1-2,2.6-2.7,4.5s-0.9,4.2-0.9,6.8v16.1c0,2.4,0.3,4.4,1,6.2
		c0.6,1.8,1.6,3.1,2.7,4.1c1.2,1,2.5,1.5,4.1,1.5c1.5,0,2.9-0.5,4-1.5c1.2-1,2-2.5,2.7-4.4c0.6-1.9,0.9-4.2,0.9-6.9v-2.4h-7.5v-7.3
		H62.3z"/>
	<path class="st2" d="M71,57.8h5.2v54.7H71V57.8z M73.5,57.8h21.3v7.3H73.5V57.8z M73.5,81.7H92V89H73.5V81.7z M73.5,105.2h21.3v7.3
		H73.5V105.2z"/>
	<path class="st2" d="M103,57.8h4.7l18.1,42.3l-0.6,1V57.8h5.1v54.6h-4.8l-18.1-41.6l0.6-1v42.6H103V57.8z"/>
	<path class="st2" d="M145.6,110.5c-1.9-1.7-3.5-4.1-4.5-7.1s-1.6-6.7-1.6-10.7v-15c0-4.1,0.5-7.6,1.6-10.7c1.1-3.1,2.6-5.5,4.5-7.2
		c1.9-1.7,4.2-2.5,6.8-2.5c2.1,0,4.1,0.7,5.9,2c1.8,1.3,3.3,3.2,4.5,5.7c1.2,2.5,2,5.3,2.4,8.5h-5.3c-0.3-1.7-0.9-3.2-1.6-4.6
		c-0.8-1.3-1.6-2.4-2.7-3.1c-1-0.7-2.1-1.1-3.2-1.1c-1.5,0-2.8,0.5-4,1.6c-1.1,1.1-2,2.6-2.6,4.5s-0.9,4.2-0.9,6.8v15
		c0,2.6,0.3,4.8,0.9,6.8s1.5,3.5,2.6,4.5c1.1,1.1,2.5,1.6,4,1.6c1.1,0,2.2-0.3,3.2-1c1-0.7,1.9-1.7,2.6-3c0.8-1.3,1.3-2.9,1.6-4.7
		h5.3c-0.4,3.2-1.2,6.1-2.4,8.5c-1.2,2.5-2.7,4.4-4.5,5.7s-3.7,2-5.8,2C149.8,113.1,147.5,112.2,145.6,110.5z"/>
	<path class="st2" d="M184.4,90.3v22.2h-5.2V90.3l-11.3-32.4h5.8l8.1,24.7l8.1-24.7h5.8L184.4,90.3z"/>
</g>
</svg>
